<?xml version="1.0" encoding="UTF-8" standalone="no"?>
<svg
   id="emoji"
   viewBox="0 0 72 72"
   version="1.1"
   sodipodi:docname="icon.svg"
   xml:space="preserve"
   inkscape:version="1.3.2 (091e20e, 2023-11-25)"
   xmlns:inkscape="http://www.inkscape.org/namespaces/inkscape"
   xmlns:sodipodi="http://sodipodi.sourceforge.net/DTD/sodipodi-0.dtd"
   xmlns="http://www.w3.org/2000/svg"
   xmlns:svg="http://www.w3.org/2000/svg"><defs
     id="defs11" /><sodipodi:namedview
     id="namedview11"
     pagecolor="#ffffff"
     bordercolor="#000000"
     borderopacity="0.25"
     inkscape:showpageshadow="2"
     inkscape:pageopacity="0.0"
     inkscape:pagecheckerboard="0"
     inkscape:deskcolor="#d1d1d1"
     inkscape:zoom="3.1926662"
     inkscape:cx="41.657973"
     inkscape:cy="55.752776"
     inkscape:window-width="1496"
     inkscape:window-height="843"
     inkscape:window-x="0"
     inkscape:window-y="34"
     inkscape:window-maximized="1"
     inkscape:current-layer="emoji" /><g
     id="color"
     transform="matrix(1.3567105,0,0,1.3567105,-17.669945,-12.327438)"><rect
       x="16.4055"
       y="11.3783"
       width="39.564499"
       height="49.065899"
       fill="#ffffff"
       id="rect1" /><polyline
       fill="#f4aa41"
       points="39.9312 40.2224 51.2252 28.9284 56.8562 36.3591 46.3562 46.8706"
       id="polyline1" /><polyline
       fill="#a57939"
       points="37.9415 46.8185 39.902 41.17 46.3562 47.624 40.7075 49.5846"
       id="polyline2" /><polyline
       fill="#ea5a47"
       points="55.3215 25.5799 59.3001 21.6013 66.0352 28.1847 62.0904 32.1296"
       id="polyline3" /><polyline
       fill="#d0cfce"
       points="50.4943 29.6593 55.1018 25.0519 61.7836 31.7907 57.2152 36.3591"
       id="polyline4" /></g><g
     id="line"
     transform="matrix(1.3567105,0,0,1.3567105,-17.669945,-12.327438)"><polygon
       points="36.9921,50.8566 38.0702,47.191 40.4564,49.5772 "
       id="polygon4" /><line
       x1="22.321501"
       x2="49.321499"
       y1="19.875"
       y2="19.875"
       fill="none"
       stroke="#000000"
       stroke-linecap="round"
       stroke-linejoin="round"
       stroke-width="2"
       id="line4" /><line
       x1="22.321501"
       x2="47.921501"
       y1="27.875"
       y2="27.875"
       fill="none"
       stroke="#000000"
       stroke-linecap="round"
       stroke-linejoin="round"
       stroke-width="2"
       id="line5" /><line
       x1="22.321501"
       x2="39.431198"
       y1="35.875"
       y2="35.875"
       fill="none"
       stroke="#000000"
       stroke-linecap="round"
       stroke-linejoin="round"
       stroke-width="2"
       id="line6" /><line
       x1="22.321501"
       x2="34.5284"
       y1="43.875"
       y2="43.875"
       fill="none"
       stroke="#000000"
       stroke-linecap="round"
       stroke-linejoin="round"
       stroke-width="2"
       id="line7" /><line
       x1="22.321501"
       x2="32.467499"
       y1="51.875"
       y2="51.875"
       fill="none"
       stroke="#000000"
       stroke-linecap="round"
       stroke-linejoin="round"
       stroke-width="2"
       id="line8" /><polygon
       points="36.9921,50.8566 38.0702,47.191 40.4564,49.5772 "
       id="polygon8" /><polygon
       fill="none"
       stroke="#000000"
       stroke-linecap="round"
       stroke-linejoin="round"
       stroke-width="2"
       points="61.9461,32.034 55.492,25.5799 39.902,41.17 37.9282,46.841 40.6919,49.591 46.3562,47.624 "
       id="polygon9" /><polyline
       fill="none"
       stroke="#000000"
       stroke-linecap="round"
       stroke-linejoin="round"
       stroke-width="2"
       points="58.0856 22.9863 59.6411 21.4309 66.0952 27.885 64.4634 29.5168"
       id="polyline9" /><line
       x1="40.278801"
       x2="46.732899"
       y1="40.793201"
       y2="47.247299"
       fill="none"
       stroke="#000000"
       stroke-linecap="round"
       stroke-linejoin="round"
       stroke-width="2"
       id="line9" /><polyline
       fill="none"
       stroke="#000000"
       stroke-linecap="round"
       stroke-linejoin="round"
       stroke-width="2"
       points="37.9323 46.8277 36.5493 50.9768 40.7075 49.5846"
       id="polyline10" /><line
       x1="51.302299"
       x2="57.194599"
       y1="30.1572"
       y2="36.0495"
       fill="none"
       stroke="#000000"
       stroke-linecap="round"
       stroke-linejoin="round"
       stroke-width="2"
       id="line10" /><polyline
       fill="none"
       stroke="#000000"
       stroke-linecap="round"
       stroke-linejoin="round"
       stroke-width="2.0206"
       points="55.3215 44.228 55.3215 59.875 16.3215 59.875 16.3215 11.875 55.3215 11.875 55.3215 20.3309"
       id="polyline11" /></g><g
     id="color-9"
     transform="translate(68.385879,-1.5282334)"><path
       fill="#a57939"
       d="m 19.4835,11.9519 c -1.6223,0.0879 -2.6548,1.3894 -2.6446,3.0141 l 0.3073,49.0067 c 0,1.1025 1.5713,3.0003 2.6738,3.0003 h 28.4129 c 3.5401,0 6.4365,-2.8964 6.4365,-6.4365 V 14.8499 c 0,-1.6248 -1.2817,-2.8115 -2.9042,-2.898 -0.7359,-0.0392 -31.6955,-0.0318 -32.2816,0 z"
       id="path1" /><path
       fill="#d0cfce"
       d="m 32.9574,11.2092 -4.0841,0.1491 c -1.6251,0 -3.3121,2.401 -3.7826,3.8716 l 21.4716,0.3382 c -0.4705,-1.4707 -1.8325,-4.3589 -3.4576,-4.3589 l -3.8013,-0.3336 c -0.3697,0 -0.1859,-3.8359 -3.3445,-3.6872 -3.1586,0.1487 -2.6318,4.0208 -3.0015,4.0208 z"
       id="path2" /><path
       fill="#ffffff"
       d="m 51.7802,54.9399 v -0.1743 c -0.0021,0.0239 -0.0102,0.0456 -0.014,0.0689 0.0046,0.0353 0.0131,0.0696 0.014,0.1054 z"
       id="path3" /><path
       fill="#ffffff"
       d="m 47.1379,14.8526 c 0.008,0.1192 -2.3273,0.5918 -2.88,0.5918 0,0 -20.1393,-0.4492 -20.1313,-0.5685 h -3.0741 c 0,0 2e-4,10e-5 4e-4,10e-5 0.236,0.0377 -0.1528,46.5465 -0.1528,46.5465 h 22.5355 c 0,0 7.3614,-6.4365 7.3614,-6.4623 L 50.6448,52.104 50.797,15.8454 c 0,-0.0543 -0.0221,-0.9928 -0.0221,-0.9928 0,0 -3.637,0 -3.637,0 z"
       id="path4" /><path
       fill="#ffffff"
       d="m 42.7393,57.1041 c 0.0184,0.0177 0.0435,0.0265 0.0633,0.0427 -0.0199,-0.0159 -0.0447,-0.0253 -0.0633,-0.0427 z"
       id="path5" /><path
       fill="#ffffff"
       d="m 43.0405,57.301 c 0.1157,0.0482 0.2423,0.076 0.3765,0.076 -0.1336,0 -0.2601,-0.0286 -0.3765,-0.076 z"
       id="path6" /><polygon
       fill="#d0cfce"
       points="45.8303,54.8528 43.6878,54.7656 42.4317,56.4499 42.4317,60.4229 43.4356,61.4225 50.5145,55.2072 "
       id="polygon6" /><polyline
       fill="none"
       stroke="#6a462f"
       stroke-linecap="round"
       stroke-linejoin="round"
       stroke-width="2"
       points="50.6448 55.9269 43.2287 62.4038 20.9144 62.4038"
       id="polyline6" /></g><g
     id="line-4"
     transform="translate(68.385879,-1.5282334)"><path
       fill="none"
       stroke="#000000"
       stroke-linecap="round"
       stroke-linejoin="round"
       stroke-width="2"
       d="m 49.6856,11.9519 h 4.9838 V 63.973 c 0,1.6568 -1.3431,3 -3,3 H 19.82 c -1.6569,0 -3,-1.3432 -3,-3 V 11.9519 h 4.6155"
       id="path7" /><line
       x1="50.797001"
       x2="50.797001"
       y1="15.8454"
       y2="54.960201"
       fill="none"
       stroke="#000000"
       stroke-linecap="round"
       stroke-linejoin="round"
       stroke-width="2"
       id="line7-3" /><polyline
       fill="none"
       stroke="#000000"
       stroke-linecap="round"
       stroke-linejoin="round"
       stroke-width="2"
       points="43.4175 56.3765 43.4175 54.9641 50.7959 54.9602 43.4356 61.4225 20.9001 61.4225 20.9001 15.8454"
       id="polyline7" /><line
       x1="24.580799"
       x2="37.3475"
       y1="22.614799"
       y2="22.614799"
       fill="none"
       stroke="#000000"
       stroke-linecap="round"
       stroke-linejoin="round"
       stroke-width="2"
       id="line8-9" /><line
       x1="24.580799"
       x2="41.563202"
       y1="26.614799"
       y2="26.614799"
       fill="none"
       stroke="#000000"
       stroke-linecap="round"
       stroke-linejoin="round"
       stroke-width="2"
       id="line9-0" /><line
       x1="24.580799"
       x2="44.780998"
       y1="30.614799"
       y2="30.614799"
       fill="none"
       stroke="#000000"
       stroke-linecap="round"
       stroke-linejoin="round"
       stroke-width="2"
       id="line10-5" /><line
       x1="24.580799"
       x2="38.133499"
       y1="34.614799"
       y2="34.614799"
       fill="none"
       stroke="#000000"
       stroke-linecap="round"
       stroke-linejoin="round"
       stroke-width="2"
       id="line11" /><line
       x1="24.580799"
       x2="40.9916"
       y1="38.614799"
       y2="38.614799"
       fill="none"
       stroke="#000000"
       stroke-linecap="round"
       stroke-linejoin="round"
       stroke-width="2"
       id="line12" /><line
       x1="24.580799"
       x2="31.7029"
       y1="42.614799"
       y2="42.614799"
       fill="none"
       stroke="#000000"
       stroke-linecap="round"
       stroke-linejoin="round"
       stroke-width="2"
       id="line13" /><path
       fill="none"
       stroke="#000000"
       stroke-linecap="round"
       stroke-linejoin="round"
       stroke-width="2"
       d="m 42.2763,10.9439 h -3.7961 c 0.1302,-0.3182 0.2034,-0.666 0.2034,-1.0311 0,-1.5047 -1.2199,-2.7244 -2.7247,-2.7244 -1.5048,0 -2.7244,1.2197 -2.7244,2.7244 0,0.3651 0.0729,0.7129 0.2033,1.0311 h -4.0611 c -2.367,0 -4.286,1.9189 -4.286,4.286 h 21.4716 c 0,-2.3671 -1.919,-4.286 -4.286,-4.286 z"
       id="path13" /></g></svg>
